<?xml version="1.0"?>
<svg id="Layer_1" data-name="Layer 1" xmlns="http://www.w3.org/2000/svg" viewBox="0 0 2389.64 660.32">
  <defs>
    
  </defs>
  <g>
    <path class="cls-2" d="M0,20.05l21.43-4.51c.75-.38,1.5-.38,2.26-.75C38.73,11.4,73.7,3.13,112.05.5c22.56-1.13,42.87-.38,60.54,2.63,22.94,4.14,42.49,12.03,57.15,23.69,11.28,9.02,19.93,19.93,25.95,33.09,6.02,13.16,9.02,28.58,9.02,45.5,0,18.05-7.14,36.47-21.43,54.52-5.64,7.52-12.78,14.67-20.68,21.81,21.06,38.73,27.07,80.47,31.96,122.96h-50.76c-2.63-21.43-5.26-39.48-10.9-59.79-3.38-12.41-7.52-23.69-12.78-34.22-12.78,7.14-26.7,13.16-40.23,17.67-21.06,7.14-41.74,11.28-59.41,11.28-10.15,0-19.55-1.13-27.83-3.38v68.44H0V20.05ZM78.96,95.63c4.51,0,8.65.38,13.16.75,14.29,1.5,29.33,4.89,43.62,10.53,21.81,7.9,41.36,19.93,56.03,33.47,4.51-4.14,8.27-7.9,11.66-12.03,6.77-8.65,10.53-16.55,10.53-22.94,0-11.28-1.88-27.45-15.79-38.73-15.79-12.03-44.37-17.67-82.72-15.04-23.69,1.5-46.63,5.64-62.8,9.02v38.35c8.27-2.26,16.92-3.38,26.32-3.38ZM58.28,183.24c4.14,3.38,12.03,5.26,22.18,5.26,19.18,0,43.62-6.77,66.93-18.43-8.27-6.02-18.42-11.28-29.33-15.42-20.31-7.52-40.99-9.78-54.15-6.02-6.02,2.26-10.15,4.89-11.28,12.78v9.78c1.13,8.27,4.14,10.9,5.64,12.03Z"></path>
    <path class="cls-2" d="M319.58,3.88h263.21v49.63h-210.57v47.38c9.78,2.26,18.8,7.14,26.7,14.67,7.14,7.14,23.31,33.84,26.32,36.85,1.5,1.13,1.88,1.13,2.26,1.13.75,0,1.13,0,2.26-1.13,3.01-3.01,19.55-29.71,26.7-36.85,10.15-10.15,22.56-15.42,36.47-15.42,26.32,0,39.86,17.67,53.4,38.35,3.01,5.26,11.28,15.04,11.66,15.04v48.88c-13.91,0-25.95-5.26-36.47-15.42-7.14-7.14-23.31-33.84-26.32-36.85-1.5-1.5-1.88-1.5-2.26-1.5-.75,0-1.13,0-2.26,1.5-3.01,3.01-19.55,29.71-26.7,36.85-10.15,10.15-22.56,15.42-36.47,15.42s-25.95-5.26-36.47-15.42c-4.51-4.51-12.78-16.92-18.8-25.95v94.01h210.57v49.63h-263.21V3.88Z"></path>
    <path class="cls-2" d="M690.29,304.7h-52.64V3.88h52.64c31.59,0,51.14-.75,82.72-.75,87.99,0,150.41,62.79,150.41,151.16s-63.92,151.91-154.17,151.91c-31.58,0-47.38-1.5-78.96-1.5ZM769.26,256.19c59.41,0,101.15-42.11,101.15-101.9s-40.23-101.15-97.39-101.15c-32.34,0-66.56.75-82.72,1.5v199.29c27.45,1.5,60.16,2.26,78.96,2.26Z"></path>
    <path class="cls-2" d="M927.1,3.88h55.65l74.08,241.78L1130.53,3.88h55.65l73.7,241.78L1333.95,3.88h55.65l-101.53,300.82h-56.4l-73.32-217.34-73.32,217.34h-56.4L927.1,3.88Z"></path>
    <path class="cls-2" d="M2156.51,304.7h-52.64V3.88h52.64c31.59,0,51.14-.75,82.72-.75,87.99,0,150.41,62.79,150.41,151.16s-63.92,151.91-154.17,151.91c-31.58,0-47.38-1.5-78.96-1.5ZM2235.47,256.19c59.41,0,101.15-42.11,101.15-101.9s-40.23-101.15-97.39-101.15c-32.34,0-66.55.75-82.72,1.5v199.29c27.45,1.5,60.16,2.26,78.96,2.26Z"></path>
    <path class="cls-2" d="M1551.88,2.07c-83.53,0-151.25,68.21-151.25,152.35s67.72,152.35,151.25,152.35,151.25-68.21,151.25-152.35S1635.41,2.07,1551.88,2.07ZM1551.88,257.97c-56.78,0-102.8-46.36-102.8-103.55s46.03-103.55,102.8-103.55,102.8,46.36,102.8,103.55-46.03,103.55-102.8,103.55Z"></path>
    <path class="cls-2" d="M1903.49,2.07c-83.53,0-151.25,68.21-151.25,152.35s67.72,152.35,151.25,152.35,151.25-68.21,151.25-152.35S1987.03,2.07,1903.49,2.07ZM1903.49,257.97c-56.78,0-102.8-46.36-102.8-103.55s46.03-103.55,102.8-103.55,102.8,46.36,102.8,103.55-46.03,103.55-102.8,103.55Z"></path>
    <path class="cls-2" d="M0,401.5h180.54v34.04H36.11v67.57h144.43v34.04H36.11v70.67H0v-206.33Z"></path>
    <path class="cls-2" d="M217.94,412.6l14.7-3.1c.52-.26,1.03-.26,1.55-.52,10.32-2.32,34.3-7.99,60.61-9.8,15.47-.77,29.4-.26,41.52,1.81,15.73,2.84,29.14,8.25,39.2,16.25,7.74,6.19,13.67,13.67,17.8,22.7,4.13,9.03,6.19,19.6,6.19,31.21,0,12.38-4.9,25.02-14.7,37.4-3.87,5.16-8.77,10.06-14.19,14.96,14.44,26.57,18.57,55.19,21.92,84.34h-34.82c-1.81-14.7-3.61-27.08-7.48-41.01-2.32-8.51-5.16-16.25-8.77-23.47-8.77,4.9-18.31,9.03-27.6,12.12-14.44,4.9-28.63,7.74-40.75,7.74-6.96,0-13.41-.77-19.09-2.32v46.94h-36.11v-195.24ZM272.1,464.44c3.1,0,5.93.26,9.03.52,9.8,1.03,20.12,3.35,29.92,7.22,14.96,5.42,28.37,13.67,38.43,22.95,3.1-2.84,5.67-5.42,8-8.25,4.64-5.93,7.22-11.35,7.22-15.73,0-7.74-1.29-18.83-10.83-26.56-10.83-8.25-30.43-12.12-56.74-10.32-16.25,1.03-31.98,3.87-43.07,6.19v26.31c5.67-1.55,11.61-2.32,18.05-2.32ZM257.92,524.53c2.84,2.32,8.25,3.61,15.22,3.61,13.15,0,29.92-4.64,45.91-12.64-5.67-4.13-12.64-7.74-20.12-10.58-13.93-5.16-28.11-6.71-37.14-4.13-4.13,1.55-6.96,3.35-7.74,8.77v6.71c.77,5.67,2.84,7.48,3.87,8.25Z"></path>
    <path class="cls-2" d="M443.37,401.5h180.54v34.04h-144.43v32.5c6.71,1.55,12.9,4.9,18.31,10.06,4.9,4.9,15.99,23.21,18.05,25.28,1.03.77,1.29.77,1.55.77.52,0,.77,0,1.55-.77,2.06-2.06,13.41-20.37,18.31-25.28,6.96-6.96,15.48-10.58,25.02-10.58,18.05,0,27.34,12.12,36.62,26.31,2.06,3.61,7.74,10.32,8,10.32v33.53c-9.54,0-17.8-3.61-25.02-10.57-4.9-4.9-15.99-23.21-18.05-25.28-1.03-1.03-1.29-1.03-1.55-1.03-.52,0-.77,0-1.55,1.03-2.06,2.06-13.41,20.38-18.31,25.28-6.96,6.96-15.47,10.57-25.02,10.57s-17.8-3.61-25.02-10.57c-3.1-3.1-8.77-11.61-12.9-17.8v64.48h144.43v34.04h-180.54v-206.33Z"></path>
    <path class="cls-2" d="M743.84,611.32c-52.1-7.74-87.69-49.26-87.69-105.75,0-64.22,43.85-109.61,105.74-109.61s105.75,45.39,105.75,109.61c0,56.48-35.59,98.01-87.69,105.75v49h-36.11v-49ZM743.84,576.24v-52.36h36.11v52.36c30.95-7.74,51.33-34.82,51.33-70.67,0-44.1-28.63-75.31-69.38-75.31s-69.38,31.21-69.38,75.31c0,35.85,20.37,62.93,51.33,70.67Z"></path>
    <path class="cls-2" d="M986.29,613.38c-7.48-6.71-10.83-21.41-29.14-23.47-5.16-.52-11.09-1.29-16.51-2.84-9.03-2.84-15.47-7.48-19.6-14.44-3.87-6.71-4.64-14.7-2.58-23.47,1.29-5.67,9.8-25.02,9.8-27.08,0-2.32-.26-2.58-5.16-7.48-5.67-5.42-15.47-14.96-15.47-32.24s9.8-26.82,15.47-32.5c4.9-4.64,5.16-5.16,5.16-7.48,0-2.06-.26-2.58-5.16-7.22-5.67-5.67-15.47-15.22-15.47-32.5h34.82c0,2.32,20.63,22.44,20.63,39.72s-9.8,26.82-15.73,32.5c-4.9,4.64-4.9,5.16-4.9,7.48,0,2.06,0,2.58,4.9,7.22,5.93,5.67,15.73,15.22,15.73,32.5,0,12.12-6.71,23.47-9.8,32.24,9.28,1.55,22.44,1.29,32.76,7.48,7.48,4.38,12.64,11.61,17.28,17.8,1.55,2.06,3.61,5.16,5.42,7.22,1.8-2.06,3.87-5.16,5.42-7.22,4.64-6.19,9.8-13.41,17.54-17.8,7.74-4.64,16.76-5.67,24.76-6.45l7.74-1.03c-.77-2.32-1.81-4.9-2.84-6.96-3.09-7.48-6.96-15.99-6.96-25.28,0-17.28,9.8-26.82,15.73-32.5,4.9-4.64,4.9-5.16,4.9-7.22,0-2.32,0-2.84-4.9-7.48-5.93-5.67-15.73-14.96-15.73-32.5s20.63-37.4,20.63-39.72h34.82c0,17.28-9.8,26.82-15.47,32.5-4.9,4.64-5.16,5.16-5.16,7.22,0,2.32.26,2.84,5.16,7.48,5.67,5.67,15.47,14.96,15.47,32.5s-9.8,26.82-15.47,32.24c-4.9,4.9-5.16,5.16-5.16,7.48,0,2.06,2.58,8,4.13,11.35,2.32,5.16,4.38,10.06,5.67,15.73,2.06,8.77,1.29,16.76-2.58,23.47-4.13,6.96-10.57,11.61-19.34,14.44-5.67,1.55-11.61,2.32-16.76,2.84-18.05,2.06-21.66,16.76-29.14,23.47-6.71,6.45-14.19,9.8-22.44,9.8s-15.73-3.35-22.44-9.8Z"></path>
    <path class="cls-2" d="M1161.42,402.41h180.54v34.04h-144.43v32.5c6.71,1.55,12.9,4.9,18.31,10.06,4.9,4.9,15.99,23.21,18.05,25.28,1.03.77,1.29.77,1.55.77.52,0,.77,0,1.55-.77,2.06-2.06,13.41-20.37,18.31-25.28,6.96-6.96,15.47-10.58,25.02-10.58,18.05,0,27.34,12.12,36.62,26.31,2.06,3.61,7.74,10.32,7.99,10.32v33.53c-9.54,0-17.8-3.61-25.02-10.57-4.9-4.9-15.99-23.21-18.05-25.28-1.03-1.03-1.29-1.03-1.55-1.03-.52,0-.77,0-1.55,1.03-2.06,2.06-13.41,20.38-18.31,25.28-6.96,6.96-15.47,10.57-25.02,10.57s-17.8-3.61-25.02-10.57c-3.1-3.1-8.77-11.61-12.9-17.8v64.48h144.43v34.04h-180.54v-206.33Z"></path>
    <path class="cls-2" d="M1385.81,402.41h46.94l110.39,161.97v-161.97h36.11v206.33h-46.94l-110.39-161.97v161.97h-36.11v-206.33Z"></path>
    <path class="cls-2" d="M1619.23,513.86c0-64.22,42.81-109.61,103.17-109.61s101.36,34.82,101.36,83.82h-37.4c0-28.89-26.56-49.52-63.96-49.52s-66.8,31.21-66.8,75.31,27.6,75.31,66.8,75.31,63.96-20.63,63.96-49.52h37.4c0,49-42.04,83.82-101.36,83.82s-103.17-45.39-103.17-109.61Z"></path>
    <path class="cls-2" d="M1871.22,593.3c4.64-4.64,10.06-7.99,14.7-10.83,2.84-1.81,8.77-4.64,8.77-6.45s-5.93-4.38-8.77-6.19c-4.64-2.84-10.06-6.19-14.7-10.83-6.71-6.71-10.06-14.96-10.06-23.99s3.35-17.02,10.06-23.73c4.64-4.64,10.06-7.99,14.7-10.83,2.84-1.81,8.77-4.38,8.77-6.19s-5.93-4.64-8.77-6.45c-4.64-2.84-10.06-6.19-14.7-10.83-6.71-6.71-10.06-14.7-10.06-23.73s3.35-17.02,10.06-23.73c4.64-4.9,10.06-7.99,14.7-11.09,2.84-1.81,7.99-4.9,8.77-6.19h33.27c0,9.03-3.35,17.02-10.06,23.73-4.38,4.9-9.8,7.99-14.44,11.09-3.1,1.55-8.77,4.38-8.77,6.19s5.67,4.38,8.77,6.19c4.64,2.84,10.06,6.19,14.44,10.83,6.71,6.96,10.06,14.96,10.06,23.99s-3.35,17.02-10.06,23.73c-4.38,4.64-9.8,8-14.44,10.83-3.1,1.81-8.77,4.38-8.77,6.19,0,2.06,5.67,4.64,8.77,6.45,4.64,2.84,10.06,6.19,14.44,10.83,6.71,6.71,10.06,14.7,10.06,23.73s-3.35,17.02-10.06,23.99c-4.38,4.64-9.8,7.74-14.44,10.83l-8.77,6.19h-33.53c0-9.03,3.35-17.02,10.06-23.73Z"></path>
    <path class="cls-2" d="M1979.55,410.69h180.54v34.04h-144.43v32.5c6.71,1.55,12.9,4.9,18.31,10.06,4.9,4.9,15.99,23.21,18.05,25.28,1.03.77,1.29.77,1.55.77.52,0,.77,0,1.55-.77,2.06-2.06,13.41-20.37,18.31-25.28,6.96-6.96,15.47-10.58,25.02-10.58,18.05,0,27.34,12.12,36.62,26.31,2.06,3.61,7.74,10.32,8,10.32v33.53c-9.54,0-17.8-3.61-25.02-10.57-4.9-4.9-15.99-23.21-18.05-25.28-1.03-1.03-1.29-1.03-1.55-1.03-.52,0-.77,0-1.55,1.03-2.06,2.06-13.41,20.38-18.31,25.28-6.96,6.96-15.47,10.57-25.02,10.57s-17.8-3.61-25.02-10.57c-3.09-3.1-8.77-11.61-12.9-17.8v64.48h144.43v34.04h-180.54v-206.33Z"></path>
    <path class="cls-2" d="M2191.05,557.45h36.11c0,18.31,26.05,31.21,63.19,31.21s63.19-12.9,63.19-31.21c0-58.03-157.33,7.74-157.33-90.01,0-36.37,38.95-61.9,94.14-61.9,52.1,0,88.98,25.53,88.98,61.9h-36.11c0-16.51-21.92-28.37-52.87-28.37-34.04,0-58.03,11.86-58.03,28.37,0,57,157.33-6.71,157.33,90.01,0,37.91-41.01,64.74-99.3,64.74s-99.3-26.82-99.3-64.74Z"></path>
  </g>
  <g>
    <path class="cls-1" d="M0,20.05l21.43-4.51c.75-.38,1.5-.38,2.26-.75C38.73,11.4,73.7,3.13,112.05.5c22.56-1.13,42.87-.38,60.54,2.63,22.94,4.14,42.49,12.03,57.15,23.69,11.28,9.02,19.93,19.93,25.95,33.09,6.02,13.16,9.02,28.58,9.02,45.5,0,18.05-7.14,36.47-21.43,54.52-5.64,7.52-12.78,14.67-20.68,21.81,21.06,38.73,27.07,80.47,31.96,122.96h-50.76c-2.63-21.43-5.26-39.48-10.9-59.79-3.38-12.41-7.52-23.69-12.78-34.22-12.78,7.14-26.7,13.16-40.23,17.67-21.06,7.14-41.74,11.28-59.41,11.28-10.15,0-19.55-1.13-27.83-3.38v68.44H0V20.05ZM78.96,95.63c4.51,0,8.65.38,13.16.75,14.29,1.5,29.33,4.89,43.62,10.53,21.81,7.9,41.36,19.93,56.03,33.47,4.51-4.14,8.27-7.9,11.66-12.03,6.77-8.65,10.53-16.55,10.53-22.94,0-11.28-1.88-27.45-15.79-38.73-15.79-12.03-44.37-17.67-82.72-15.04-23.69,1.5-46.63,5.64-62.8,9.02v38.35c8.27-2.26,16.92-3.38,26.32-3.38ZM58.28,183.24c4.14,3.38,12.03,5.26,22.18,5.26,19.18,0,43.62-6.77,66.93-18.43-8.27-6.02-18.42-11.28-29.33-15.42-20.31-7.52-40.99-9.78-54.15-6.02-6.02,2.26-10.15,4.89-11.28,12.78v9.78c1.13,8.27,4.14,10.9,5.64,12.03Z"></path>
    <path class="cls-1" d="M319.58,3.88h263.21v49.63h-210.57v47.38c9.78,2.26,18.8,7.14,26.7,14.67,7.14,7.14,23.31,33.84,26.32,36.85,1.5,1.13,1.88,1.13,2.26,1.13.75,0,1.13,0,2.26-1.13,3.01-3.01,19.55-29.71,26.7-36.85,10.15-10.15,22.56-15.42,36.47-15.42,26.32,0,39.86,17.67,53.4,38.35,3.01,5.26,11.28,15.04,11.66,15.04v48.88c-13.91,0-25.95-5.26-36.47-15.42-7.14-7.14-23.31-33.84-26.32-36.85-1.5-1.5-1.88-1.5-2.26-1.5-.75,0-1.13,0-2.26,1.5-3.01,3.01-19.55,29.71-26.7,36.85-10.15,10.15-22.56,15.42-36.47,15.42s-25.95-5.26-36.47-15.42c-4.51-4.51-12.78-16.92-18.8-25.95v94.01h210.57v49.63h-263.21V3.88Z"></path>
    <path class="cls-1" d="M690.29,304.7h-52.64V3.88h52.64c31.59,0,51.14-.75,82.72-.75,87.99,0,150.41,62.79,150.41,151.16s-63.92,151.91-154.17,151.91c-31.58,0-47.38-1.5-78.96-1.5ZM769.26,256.19c59.41,0,101.15-42.11,101.15-101.9s-40.23-101.15-97.39-101.15c-32.34,0-66.56.75-82.72,1.5v199.29c27.45,1.5,60.16,2.26,78.96,2.26Z"></path>
    <path class="cls-1" d="M927.1,3.88h55.65l74.08,241.78L1130.53,3.88h55.65l73.7,241.78L1333.95,3.88h55.65l-101.53,300.82h-56.4l-73.32-217.34-73.32,217.34h-56.4L927.1,3.88Z"></path>
    <path class="cls-1" d="M2156.51,304.7h-52.64V3.88h52.64c31.59,0,51.14-.75,82.72-.75,87.99,0,150.41,62.79,150.41,151.16s-63.92,151.91-154.17,151.91c-31.58,0-47.38-1.5-78.96-1.5ZM2235.47,256.19c59.41,0,101.15-42.11,101.15-101.9s-40.23-101.15-97.39-101.15c-32.34,0-66.55.75-82.72,1.5v199.29c27.45,1.5,60.16,2.26,78.96,2.26Z"></path>
    <path class="cls-1" d="M1551.88,2.07c-83.53,0-151.25,68.21-151.25,152.35s67.72,152.35,151.25,152.35,151.25-68.21,151.25-152.35S1635.41,2.07,1551.88,2.07ZM1551.88,257.97c-56.78,0-102.8-46.36-102.8-103.55s46.03-103.55,102.8-103.55,102.8,46.36,102.8,103.55-46.03,103.55-102.8,103.55Z"></path>
    <path class="cls-1" d="M1903.49,2.07c-83.53,0-151.25,68.21-151.25,152.35s67.72,152.35,151.25,152.35,151.25-68.21,151.25-152.35S1987.03,2.07,1903.49,2.07ZM1903.49,257.97c-56.78,0-102.8-46.36-102.8-103.55s46.03-103.55,102.8-103.55,102.8,46.36,102.8,103.55-46.03,103.55-102.8,103.55Z"></path>
    <path class="cls-1" d="M0,401.5h180.54v34.04H36.11v67.57h144.43v34.04H36.11v70.67H0v-206.33Z"></path>
    <path class="cls-1" d="M217.94,412.6l14.7-3.1c.52-.26,1.03-.26,1.55-.52,10.32-2.32,34.3-7.99,60.61-9.8,15.47-.77,29.4-.26,41.52,1.81,15.73,2.84,29.14,8.25,39.2,16.25,7.74,6.19,13.67,13.67,17.8,22.7,4.13,9.03,6.19,19.6,6.19,31.21,0,12.38-4.9,25.02-14.7,37.4-3.87,5.16-8.77,10.06-14.19,14.96,14.44,26.57,18.57,55.19,21.92,84.34h-34.82c-1.81-14.7-3.61-27.08-7.48-41.01-2.32-8.51-5.16-16.25-8.77-23.47-8.77,4.9-18.31,9.03-27.6,12.12-14.44,4.9-28.63,7.74-40.75,7.74-6.96,0-13.41-.77-19.09-2.32v46.94h-36.11v-195.24ZM272.1,464.44c3.1,0,5.93.26,9.03.52,9.8,1.03,20.12,3.35,29.92,7.22,14.96,5.42,28.37,13.67,38.43,22.95,3.1-2.84,5.67-5.42,8-8.25,4.64-5.93,7.22-11.35,7.22-15.73,0-7.74-1.29-18.83-10.83-26.56-10.83-8.25-30.43-12.12-56.74-10.32-16.25,1.03-31.98,3.87-43.07,6.19v26.31c5.67-1.55,11.61-2.32,18.05-2.32ZM257.92,524.53c2.84,2.32,8.25,3.61,15.22,3.61,13.15,0,29.92-4.64,45.91-12.64-5.67-4.13-12.64-7.74-20.12-10.58-13.93-5.16-28.11-6.71-37.14-4.13-4.13,1.55-6.96,3.35-7.74,8.77v6.71c.77,5.67,2.84,7.48,3.87,8.25Z"></path>
    <path class="cls-1" d="M443.37,401.5h180.54v34.04h-144.43v32.5c6.71,1.55,12.9,4.9,18.31,10.06,4.9,4.9,15.99,23.21,18.05,25.28,1.03.77,1.29.77,1.55.77.52,0,.77,0,1.55-.77,2.06-2.06,13.41-20.37,18.31-25.28,6.96-6.96,15.48-10.58,25.02-10.58,18.05,0,27.34,12.12,36.62,26.31,2.06,3.61,7.74,10.32,8,10.32v33.53c-9.54,0-17.8-3.61-25.02-10.57-4.9-4.9-15.99-23.21-18.05-25.28-1.03-1.03-1.29-1.03-1.55-1.03-.52,0-.77,0-1.55,1.03-2.06,2.06-13.41,20.38-18.31,25.28-6.96,6.96-15.47,10.57-25.02,10.57s-17.8-3.61-25.02-10.57c-3.1-3.1-8.77-11.61-12.9-17.8v64.48h144.43v34.04h-180.54v-206.33Z"></path>
    <path class="cls-1" d="M743.84,611.32c-52.1-7.74-87.69-49.26-87.69-105.75,0-64.22,43.85-109.61,105.74-109.61s105.75,45.39,105.75,109.61c0,56.48-35.59,98.01-87.69,105.75v49h-36.11v-49ZM743.84,576.24v-52.36h36.11v52.36c30.95-7.74,51.33-34.82,51.33-70.67,0-44.1-28.63-75.31-69.38-75.31s-69.38,31.21-69.38,75.31c0,35.85,20.37,62.93,51.33,70.67Z"></path>
    <path class="cls-1" d="M986.29,613.38c-7.48-6.71-10.83-21.41-29.14-23.47-5.16-.52-11.09-1.29-16.51-2.84-9.03-2.84-15.47-7.48-19.6-14.44-3.87-6.71-4.64-14.7-2.58-23.47,1.29-5.67,9.8-25.02,9.8-27.08,0-2.32-.26-2.58-5.16-7.48-5.67-5.42-15.47-14.96-15.47-32.24s9.8-26.82,15.47-32.5c4.9-4.64,5.16-5.16,5.16-7.48,0-2.06-.26-2.58-5.16-7.22-5.67-5.67-15.47-15.22-15.47-32.5h34.82c0,2.32,20.63,22.44,20.63,39.72s-9.8,26.82-15.73,32.5c-4.9,4.64-4.9,5.16-4.9,7.48,0,2.06,0,2.58,4.9,7.22,5.93,5.67,15.73,15.22,15.73,32.5,0,12.12-6.71,23.47-9.8,32.24,9.28,1.55,22.44,1.29,32.76,7.48,7.48,4.38,12.64,11.61,17.28,17.8,1.55,2.06,3.61,5.16,5.42,7.22,1.8-2.06,3.87-5.16,5.42-7.22,4.64-6.19,9.8-13.41,17.54-17.8,7.74-4.64,16.76-5.67,24.76-6.45l7.74-1.03c-.77-2.32-1.81-4.9-2.84-6.96-3.09-7.48-6.96-15.99-6.96-25.28,0-17.28,9.8-26.82,15.73-32.5,4.9-4.64,4.9-5.16,4.9-7.22,0-2.32,0-2.84-4.9-7.48-5.93-5.67-15.73-14.96-15.73-32.5s20.63-37.4,20.63-39.72h34.82c0,17.28-9.8,26.82-15.47,32.5-4.9,4.64-5.16,5.16-5.16,7.22,0,2.32.26,2.84,5.16,7.48,5.67,5.67,15.47,14.96,15.47,32.5s-9.8,26.82-15.47,32.24c-4.9,4.9-5.16,5.16-5.16,7.48,0,2.06,2.58,8,4.13,11.35,2.32,5.16,4.38,10.06,5.67,15.73,2.06,8.77,1.29,16.76-2.58,23.47-4.13,6.96-10.57,11.61-19.34,14.44-5.67,1.55-11.61,2.32-16.76,2.84-18.05,2.06-21.66,16.76-29.14,23.47-6.71,6.45-14.19,9.8-22.44,9.8s-15.73-3.35-22.44-9.8Z"></path>
    <path class="cls-1" d="M1161.42,402.41h180.54v34.04h-144.43v32.5c6.71,1.55,12.9,4.9,18.31,10.06,4.9,4.9,15.99,23.21,18.05,25.28,1.03.77,1.29.77,1.55.77.52,0,.77,0,1.55-.77,2.06-2.06,13.41-20.37,18.31-25.28,6.96-6.96,15.47-10.58,25.02-10.58,18.05,0,27.34,12.12,36.62,26.31,2.06,3.61,7.74,10.32,7.99,10.32v33.53c-9.54,0-17.8-3.61-25.02-10.57-4.9-4.9-15.99-23.21-18.05-25.28-1.03-1.03-1.29-1.03-1.55-1.03-.52,0-.77,0-1.55,1.03-2.06,2.06-13.41,20.38-18.31,25.28-6.96,6.96-15.47,10.57-25.02,10.57s-17.8-3.61-25.02-10.57c-3.1-3.1-8.77-11.61-12.9-17.8v64.48h144.43v34.04h-180.54v-206.33Z"></path>
    <path class="cls-1" d="M1385.81,402.41h46.94l110.39,161.97v-161.97h36.11v206.33h-46.94l-110.39-161.97v161.97h-36.11v-206.33Z"></path>
    <path class="cls-1" d="M1619.23,513.86c0-64.22,42.81-109.61,103.17-109.61s101.36,34.82,101.36,83.82h-37.4c0-28.89-26.56-49.52-63.96-49.52s-66.8,31.21-66.8,75.31,27.6,75.31,66.8,75.31,63.96-20.63,63.96-49.52h37.4c0,49-42.04,83.82-101.36,83.82s-103.17-45.39-103.17-109.61Z"></path>
    <path class="cls-1" d="M1871.22,593.3c4.64-4.64,10.06-7.99,14.7-10.83,2.84-1.81,8.77-4.64,8.77-6.45s-5.93-4.38-8.77-6.19c-4.64-2.84-10.06-6.19-14.7-10.83-6.71-6.71-10.06-14.96-10.06-23.99s3.35-17.02,10.06-23.73c4.64-4.64,10.06-7.99,14.7-10.83,2.84-1.81,8.77-4.38,8.77-6.19s-5.93-4.64-8.77-6.45c-4.64-2.84-10.06-6.19-14.7-10.83-6.71-6.71-10.06-14.7-10.06-23.73s3.35-17.02,10.06-23.73c4.64-4.9,10.06-7.99,14.7-11.09,2.84-1.81,7.99-4.9,8.77-6.19h33.27c0,9.03-3.35,17.02-10.06,23.73-4.38,4.9-9.8,7.99-14.44,11.09-3.1,1.55-8.77,4.38-8.77,6.19s5.67,4.38,8.77,6.19c4.64,2.84,10.06,6.19,14.44,10.83,6.71,6.96,10.06,14.96,10.06,23.99s-3.35,17.02-10.06,23.73c-4.38,4.64-9.8,8-14.44,10.83-3.1,1.81-8.77,4.38-8.77,6.19,0,2.06,5.67,4.64,8.77,6.45,4.64,2.84,10.06,6.19,14.44,10.83,6.71,6.71,10.06,14.7,10.06,23.73s-3.35,17.02-10.06,23.99c-4.38,4.64-9.8,7.74-14.44,10.83l-8.77,6.19h-33.53c0-9.03,3.35-17.02,10.06-23.73Z"></path>
    <path class="cls-1" d="M1979.55,410.69h180.54v34.04h-144.43v32.5c6.71,1.55,12.9,4.9,18.31,10.06,4.9,4.9,15.99,23.21,18.05,25.28,1.03.77,1.29.77,1.55.77.52,0,.77,0,1.55-.77,2.06-2.06,13.41-20.37,18.31-25.28,6.96-6.96,15.47-10.58,25.02-10.58,18.05,0,27.34,12.12,36.62,26.31,2.06,3.61,7.74,10.32,8,10.32v33.53c-9.54,0-17.8-3.61-25.02-10.57-4.9-4.9-15.99-23.21-18.05-25.28-1.03-1.03-1.29-1.03-1.55-1.03-.52,0-.77,0-1.55,1.03-2.06,2.06-13.41,20.38-18.31,25.28-6.96,6.96-15.47,10.57-25.02,10.57s-17.8-3.61-25.02-10.57c-3.09-3.1-8.77-11.61-12.9-17.8v64.48h144.43v34.04h-180.54v-206.33Z"></path>
    <path class="cls-1" d="M2191.05,557.45h36.11c0,18.31,26.05,31.21,63.19,31.21s63.19-12.9,63.19-31.21c0-58.03-157.33,7.74-157.33-90.01,0-36.37,38.95-61.9,94.14-61.9,52.1,0,88.98,25.53,88.98,61.9h-36.11c0-16.51-21.92-28.37-52.87-28.37-34.04,0-58.03,11.86-58.03,28.37,0,57,157.33-6.71,157.33,90.01,0,37.91-41.01,64.74-99.3,64.74s-99.3-26.82-99.3-64.74Z"></path>
  </g>
</svg>